<svg width="105" height="51" viewBox="0 0 105 51" fill="none" xmlns="http://www.w3.org/2000/svg">
<path fill-rule="evenodd" clip-rule="evenodd" d="M83.8567 28.3179C82.9786 30.3869 80.9271 31.8381 78.5365 31.8381C76.306 31.8381 74.3708 30.5748 73.4083 28.7251L59.0124 43.1211C57.3218 44.8116 57.3228 47.5536 59.0147 49.2454C60.7065 50.9372 63.4484 50.9383 65.139 49.2477L78.8407 35.546L84.0921 40.7974C85.7839 42.4892 88.5259 42.4903 90.2164 40.7997C91.907 39.1091 91.9059 36.3672 90.2141 34.6754L84.9627 29.424L83.8567 28.3179Z" fill="#00B483"/>
<path fill-rule="evenodd" clip-rule="evenodd" d="M82.0839 30.6216L96.6347 45.1725C98.3253 46.863 101.067 46.862 102.759 45.1702C104.451 43.4783 104.452 40.7364 102.761 39.0458L89.0597 25.3441L94.3111 20.0927C96.0029 18.4009 96.0039 15.659 94.3134 13.9684C92.6228 12.2779 89.8808 12.2789 88.189 13.9707L82.9376 19.2221L81.2109 20.9488C83.0546 21.9129 84.3127 23.8427 84.3127 26.0661C84.3127 27.9175 83.4403 29.5654 82.0839 30.6216Z" fill="#00684B"/>
<path fill-rule="evenodd" clip-rule="evenodd" d="M78.5363 20.2942C76.6854 20.2942 75.0378 21.1641 73.9807 22.5171L72.7264 21.2629L67.475 16.0115C65.7832 14.3196 65.7822 11.5777 67.4727 9.88714C69.1633 8.19658 71.9053 8.19761 73.5971 9.88943L78.8485 15.1408L92.5502 1.43912C94.2407 -0.251435 96.9827 -0.250408 98.6745 1.44141C100.366 3.13323 100.367 5.87519 98.6768 7.56574L83.3571 22.8854C82.3233 21.3241 80.5501 20.2942 78.5363 20.2942ZM3.03465 17.4466C3.03465 18.2992 2.36242 18.9968 1.53653 18.9968C0.672233 18.9968 0 18.2992 0 17.4466C0 16.6521 0.672233 15.9352 1.53653 15.9352C2.36242 15.9352 3.03465 16.6521 3.03465 17.4466ZM2.91941 20.3726V30.3905H0.11524V20.3726H2.91941ZM13.6034 27.9878V30.3905H4.92198V28.3947L9.91571 22.7753H5.05643V20.3726H13.565V22.3684L8.57125 27.9878H13.6034ZM18.487 17.4466C18.487 18.2992 17.8147 18.9968 16.9888 18.9968C16.1245 18.9968 15.4523 18.2992 15.4523 17.4466C15.4523 16.6521 16.1245 15.9352 16.9888 15.9352C17.8147 15.9352 18.487 16.6521 18.487 17.4466ZM18.3717 20.3726V30.3905H15.5675V20.3726H18.3717ZM23.6202 28.976V33.7234H20.816V20.3726H23.6202V21.7677C24.4077 20.7407 25.5601 20.14 26.943 20.14C29.5935 20.14 31.5142 22.3103 31.5142 25.3719C31.5142 28.4528 29.5935 30.6231 26.943 30.6231C25.5601 30.6231 24.4077 30.0224 23.6202 28.976ZM23.6202 25.7594C23.7739 27.2321 24.7726 28.2397 26.1363 28.2397C27.692 28.2397 28.7868 27.0577 28.7868 25.3719C28.7868 23.7054 27.692 22.5234 26.1363 22.5234C24.7726 22.5234 23.7739 23.531 23.6202 24.9843V25.7594ZM39.586 29.3829C38.8754 30.1968 37.7422 30.6231 36.6666 30.6231C34.5539 30.6231 32.9213 29.3442 32.9213 27.4258C32.9213 25.4494 34.7459 24.093 37.0507 24.093C37.8574 24.093 38.7409 24.2674 39.586 24.5968V24.403C39.586 23.3373 38.933 22.4072 37.3004 22.4072C36.3785 22.4072 35.5142 22.7172 34.7267 23.1241L33.7856 21.2445C35.1877 20.5276 36.5514 20.14 37.9343 20.14C40.5272 20.14 42.2942 21.7871 42.2942 24.403V30.3905H39.586V29.3829ZM35.6295 27.3483C35.6295 28.1622 36.3401 28.666 37.3004 28.666C38.376 28.666 39.394 28.1622 39.586 27.2321V26.302C38.9522 26.0694 38.2224 25.9338 37.4541 25.9338C36.4361 25.9338 35.6295 26.5345 35.6295 27.3483ZM53.4967 28.8598C52.5172 29.9449 51.1727 30.6231 49.5209 30.6231C46.5823 30.6231 44.1047 28.2203 44.1047 25.3719C44.1047 22.5234 46.6015 20.14 49.5402 20.14C51.1535 20.14 52.4788 20.7989 53.4391 21.8452L51.5761 23.4535C51.0767 22.8916 50.2892 22.5234 49.5209 22.5234C48.0612 22.5234 46.832 23.8217 46.832 25.3525C46.832 26.922 48.0612 28.2397 49.5402 28.2397C50.3084 28.2397 51.1151 27.8521 51.6337 27.2708L53.4967 28.8598ZM57.9385 27.9296V30.3905H55.1344V16.8459H57.9385V24.6937L61.6262 20.3726H64.8529L60.9924 24.8099L64.8145 30.3905H61.5878L59.1294 26.6314L57.9385 27.9296Z" fill="#21343B"/>
</svg>
