<svg width="100%" height="100%" viewBox="0 0 26 27" fill="none" xmlns="http://www.w3.org/2000/svg">
<path fill-rule="evenodd" clip-rule="evenodd" d="M14.5345 16.1576C14.0021 17.0507 12.9705 17.6562 11.7853 17.6562C10.4128 17.6562 9.24633 16.8442 8.82241 15.7138L1.55353 22.9827C0.709003 23.8272 0.768402 25.2558 1.6862 26.1736C2.60399 27.0914 4.03264 27.1508 4.87716 26.3063L11.7219 19.4615L14.5707 22.3104C15.4885 23.2282 16.9172 23.2876 17.7617 22.443C18.6062 21.5985 18.5468 20.1699 17.629 19.2521L14.7802 16.4033L14.5345 16.1576Z" fill="#00B483"/>
<path fill-rule="evenodd" clip-rule="evenodd" d="M13.6265 17.0693L21.4982 24.941C22.4078 25.8506 23.8918 25.8413 24.8127 24.9203C25.7337 23.9994 25.743 22.5154 24.8334 21.6058L17.4614 14.2338L20.3043 11.391L20.3202 11.3752C21.2412 10.4542 21.2504 8.97024 20.3409 8.06068C19.4313 7.15111 17.9473 7.16036 17.0264 8.08134L17.0263 8.08136L17.0263 8.08129L13.2141 11.8934C14.1855 12.4219 14.8436 13.4427 14.8436 14.6154C14.8436 15.6132 14.3671 16.5011 13.6265 17.0693Z" fill="#00684B"/>
<path fill-rule="evenodd" clip-rule="evenodd" d="M14.4813 12.9638L22.8057 4.63944C23.7251 3.72 23.7328 2.23694 22.8228 1.32694C21.9128 0.416937 20.4297 0.424593 19.5103 1.34404L12.0583 8.79601L9.23369 5.97138C8.32369 5.06138 6.84063 5.06903 5.92119 5.98848C5.00174 6.90792 4.99409 8.39098 5.90409 9.30098L8.72872 12.1256L9.4483 12.8452C10.0158 12.0917 10.9128 11.6053 11.9222 11.6053C12.9837 11.6053 13.9209 12.1432 14.4813 12.9638Z" fill="#21343B"/>
</svg>
